<?xml version="1.0" standalone="no"?><!DOCTYPE svg PUBLIC "-//W3C//DTD SVG 1.1//EN" "http://www.w3.org/Graphics/SVG/1.1/DTD/svg11.dtd"><svg t="1515310416293" class="icon" style="" viewBox="0 0 1024 1024" version="1.1" xmlns="http://www.w3.org/2000/svg" p-id="1825" xmlns:xlink="http://www.w3.org/1999/xlink" width="112" height="112"><defs><style type="text/css"></style></defs><path d="M669.538462 394.633846l236.307692 472.615385v-315.076923l-100.824616-202.436923c-22.843077-46.473846-89.796923-46.473846-112.64 0L669.538462 394.633846z" fill="#09BB07" p-id="1826"></path><path d="M905.846154 898.756923c-11.815385 0-22.843077-6.301538-28.356923-17.329231l-236.307693-472.615384c-4.726154-8.664615-4.726154-19.692308 0-28.356923l22.055385-44.898462c15.753846-32.295385 48.836923-51.987692 84.283077-51.987692s68.529231 19.692308 84.283077 51.987692l100.824615 202.436923c2.363077 4.726154 3.150769 9.452308 3.15077 14.178462v315.076923c0 14.966154-10.24 27.569231-24.418462 30.72-0.787692 0-3.150769 0.787692-5.513846 0.787692z m-200.861539-504.123077l169.353847 338.707692V559.261538L776.664615 363.913846c-5.513846-11.027692-15.753846-17.329231-28.356923-17.329231s-22.843077 6.301538-28.356923 17.329231l-14.966154 30.72z" fill="#7F7F7F" p-id="1827"></path><path d="M295.384615 512.787692l-2.363077-5.513846c-22.843077-46.473846-89.796923-46.473846-112.64 0L118.153846 630.941538v236.307693l177.230769-354.461539z" fill="#09BB07" p-id="1828"></path><path d="M118.153846 898.756923c-2.363077 0-4.726154 0-7.089231-0.787692-14.178462-3.150769-24.418462-15.753846-24.418461-30.72v-236.307693c0-4.726154 0.787692-9.452308 3.150769-14.178461l61.44-123.667692c15.753846-32.295385 48.836923-51.987692 84.283077-51.987693s68.529231 19.692308 84.283077 51.987693l2.363077 5.513846c4.726154 8.664615 4.726154 19.692308 0 28.356923l-177.230769 354.461538c-3.938462 10.24-14.966154 17.329231-26.781539 17.329231zM149.661538 638.030769v95.310769l109.489231-219.766153c-5.513846-6.301538-14.178462-10.24-22.843077-10.24-11.815385 0-22.843077 6.301538-28.356923 17.32923L149.661538 638.030769z" fill="#7F7F7F" p-id="1829"></path><path d="M905.846154 898.756923H118.153846c-11.027692 0-21.267692-5.513846-26.781538-14.966154-5.513846-9.452308-6.301538-21.267692-1.575385-30.72l337.132308-675.052307c15.753846-32.295385 48.836923-51.987692 84.283077-51.987693s68.529231 19.692308 84.283077 51.987693l100.824615 202.436923 236.307692 472.615384c4.726154 9.452308 4.726154 21.267692-1.575384 30.72-3.938462 8.664615-14.178462 14.966154-25.206154 14.966154z m-736.492308-63.015385h686.08l-315.076923-629.366153c-5.513846-11.027692-15.753846-17.329231-28.356923-17.329231s-22.843077 6.301538-28.356923 17.329231l-314.289231 629.366153z" fill="#7F7F7F" p-id="1830"></path><path d="M472.615385 867.249231h433.230769l-78.769231-157.538462-157.538461-315.076923-78.769231 157.538462-78.769231-157.538462-78.769231 157.538462-78.769231-157.538462-59.076923 118.153846-157.538461 315.076923-19.692308 39.384616h315.076923z" fill="#09BB07" p-id="1831"></path><path d="M905.846154 898.756923H118.153846c-11.027692 0-21.267692-5.513846-26.781538-14.966154-5.513846-9.452308-6.301538-21.267692-1.575385-30.72l236.307692-472.615384c5.513846-11.027692 16.541538-17.329231 28.356923-17.329231s22.843077 7.089231 28.356924 17.329231L433.230769 481.28l50.412308-100.824615c5.513846-11.027692 16.541538-17.329231 28.356923-17.329231s22.843077 7.089231 28.356923 17.329231L590.769231 481.28l50.412307-100.824615c5.513846-11.027692 16.541538-17.329231 28.356924-17.329231s22.843077 7.089231 28.356923 17.329231l236.307692 472.615384c4.726154 9.452308 4.726154 21.267692-1.575385 30.72-5.513846 8.664615-15.753846 14.966154-26.781538 14.966154z m-736.492308-63.015385h686.08L669.538462 464.738462l-50.412308 100.824615c-5.513846 11.027692-16.541538 17.329231-28.356923 17.329231s-22.843077-7.089231-28.356923-17.329231L512 464.738462l-50.412308 100.824615c-5.513846 11.027692-16.541538 17.329231-28.356923 17.329231s-22.843077-7.089231-28.356923-17.329231L354.461538 464.738462l-185.107692 371.003076z" fill="#7F7F7F" p-id="1832"></path></svg>