<?xml version="1.0" standalone="no"?><!DOCTYPE svg PUBLIC "-//W3C//DTD SVG 1.1//EN" "http://www.w3.org/Graphics/SVG/1.1/DTD/svg11.dtd"><svg t="1515310461261" class="icon" style="" viewBox="0 0 1024 1024" version="1.1" xmlns="http://www.w3.org/2000/svg" p-id="3055" xmlns:xlink="http://www.w3.org/1999/xlink" width="112" height="112"><defs><style type="text/css"></style></defs><path d="M905.846 937.354H669.538c-17.329 0-31.507-14.179-31.507-31.508V118.154c0-17.33 14.178-31.508 31.507-31.508h236.308c17.33 0 31.508 14.179 31.508 31.508v787.692c0 17.33-14.179 31.508-31.508 31.508z m-204.8-63.016h173.292V149.662H701.046v724.676z" fill="#7F7F7F" p-id="3056"></path><path d="M905.846 220.554H787.692c-13.39 0-23.63-10.24-23.63-23.63s10.24-23.632 23.63-23.632h118.154c13.39 0 23.63 10.24 23.63 23.631s-10.24 23.63-23.63 23.63z m0 78.77H846.77c-13.39 0-23.63-10.24-23.63-23.632s10.24-23.63 23.63-23.63h59.077c13.39 0 23.63 10.24 23.63 23.63s-10.24 23.631-23.63 23.631z m0 78.768H787.692c-13.39 0-23.63-10.24-23.63-23.63s10.24-23.631 23.63-23.631h118.154c13.39 0 23.63 10.24 23.63 23.63s-10.24 23.631-23.63 23.631z m0 78.77H846.77c-13.39 0-23.63-10.24-23.63-23.631s10.24-23.631 23.63-23.631h59.077c13.39 0 23.63 10.24 23.63 23.63s-10.24 23.632-23.63 23.632z m0 78.769H787.692c-13.39 0-23.63-10.24-23.63-23.631s10.24-23.63 23.63-23.63h118.154c13.39 0 23.63 10.24 23.63 23.63s-10.24 23.63-23.63 23.63z m0 78.769H846.77c-13.39 0-23.63-10.24-23.63-23.63s10.24-23.632 23.63-23.632h59.077c13.39 0 23.63 10.24 23.63 23.631s-10.24 23.631-23.63 23.631z m0 78.77H787.692c-13.39 0-23.63-10.24-23.63-23.632s10.24-23.63 23.63-23.63h118.154c13.39 0 23.63 10.24 23.63 23.63s-10.24 23.631-23.63 23.631z m0 78.768H846.77c-13.39 0-23.63-10.24-23.63-23.63s10.24-23.631 23.63-23.631h59.077c13.39 0 23.63 10.24 23.63 23.63s-10.24 23.631-23.63 23.631z m0 78.77H787.692c-13.39 0-23.63-10.24-23.63-23.631s10.24-23.63 23.63-23.63h118.154c13.39 0 23.63 10.24 23.63 23.63s-10.24 23.63-23.63 23.63zM590.77 937.354H118.153c-17.33 0-31.508-14.179-31.508-31.508V118.154c0-14.179 9.452-26.782 22.843-30.72s28.357 2.363 35.446 14.178l472.616 787.693c5.514 9.452 6.301 22.055 0.787 31.507s-16.541 16.542-27.569 16.542z m-441.108-63.016h385.181L149.662 231.582v642.756z" fill="#7F7F7F" p-id="3057"></path><path d="M397.785 807.385H232.369V531.692z" fill="#09BB07" p-id="3058"></path></svg>