<?xml version="1.0" standalone="no"?><!DOCTYPE svg PUBLIC "-//W3C//DTD SVG 1.1//EN" "http://www.w3.org/Graphics/SVG/1.1/DTD/svg11.dtd"><svg t="1515310428570" class="icon" style="" viewBox="0 0 1024 1024" version="1.1" xmlns="http://www.w3.org/2000/svg" p-id="1830" xmlns:xlink="http://www.w3.org/1999/xlink" width="112" height="112"><defs><style type="text/css"></style></defs><path d="M889.304615 378.092308H134.695385L417.476923 151.236923c55.138462-44.110769 133.12-44.110769 188.258462 0l283.56923 226.855385z" fill="#09BB07" p-id="1831"></path><path d="M889.304615 409.6H134.695385c-13.390769 0-25.206154-8.664615-29.932308-21.267692-4.726154-12.603077-0.787692-26.781538 10.24-34.658462l282.781538-226.067692c66.953846-53.563077 160.689231-53.563077 227.643077 0l282.781539 226.067692c10.24 8.664615 14.178462 22.055385 10.24 34.658462-3.938462 12.603077-15.753846 21.267692-29.144616 21.267692z m-664.812307-63.015385h575.015384l-212.676923-170.141538c-44.110769-35.446154-105.550769-35.446154-148.873846 0L224.492308 346.584615z" fill="#7F7F7F" p-id="1832"></path><path d="M134.695385 755.396923h754.60923v151.236923H134.695385z" fill="#09BB07" p-id="1833"></path><path d="M889.304615 937.353846H134.695385c-17.329231 0-31.507692-14.178462-31.507693-31.507692V755.396923c0-17.329231 14.178462-31.507692 31.507693-31.507692h754.60923c17.329231 0 31.507692 14.178462 31.507693 31.507692V905.846154c0 17.329231-14.178462 31.507692-31.507693 31.507692z m-723.101538-63.015384h691.593846V786.904615H166.203077V874.338462z" fill="#7F7F7F" p-id="1834"></path><path d="M134.695385 378.092308h754.60923v75.618461H134.695385z" fill="#09BB07" p-id="1835"></path><path d="M889.304615 484.430769H134.695385c-17.329231 0-31.507692-14.178462-31.507693-31.507692V378.092308c0-17.329231 14.178462-31.507692 31.507693-31.507693h754.60923c17.329231 0 31.507692 14.178462 31.507693 31.507693v75.618461c0 16.541538-14.178462 30.72-31.507693 30.72z m-723.101538-63.015384h691.593846V409.6H166.203077v11.815385z" fill="#7F7F7F" p-id="1836"></path><path d="M360.763077 786.904615H210.313846c-17.329231 0-31.507692-14.178462-31.507692-31.507692V452.923077c0-17.329231 14.178462-31.507692 31.507692-31.507692h151.236923c17.329231 0 31.507692 14.178462 31.507693 31.507692v301.686154c-0.787692 18.116923-14.966154 32.295385-32.295385 32.295384z m-118.941539-63.015384h88.221539V484.430769H241.821538v239.458462z" fill="#7F7F7F" p-id="1837"></path><path d="M813.686154 786.904615H663.236923c-17.329231 0-31.507692-14.178462-31.507692-31.507692V452.923077c0-17.329231 14.178462-31.507692 31.507692-31.507692h151.236923c17.329231 0 31.507692 14.178462 31.507692 31.507692v301.686154c-0.787692 18.116923-14.966154 32.295385-32.295384 32.295384z m-118.941539-63.015384h88.221539V484.430769H694.744615v239.458462z" fill="#7F7F7F" p-id="1838"></path></svg>