<?xml version="1.0" standalone="no"?><!DOCTYPE svg PUBLIC "-//W3C//DTD SVG 1.1//EN" "http://www.w3.org/Graphics/SVG/1.1/DTD/svg11.dtd"><svg t="1519364886710" class="icon" style="" viewBox="0 0 1024 1024" version="1.1" xmlns="http://www.w3.org/2000/svg" p-id="3810" xmlns:xlink="http://www.w3.org/1999/xlink" width="96" height="96"><defs><style type="text/css"></style></defs><path d="M356.864 695.296c30.72-75.264 31.232-156.16 29.696-236.544-0.512-33.28-52.224-33.28-51.2 0 1.536 76.288 1.536 151.04-27.648 222.72-12.8 30.72 36.864 44.032 49.152 13.824z" fill="#09BB07" p-id="3811"></path><path d="M995.84 233.472c-15.872-2.048-31.744-3.584-47.104-4.608 11.264-28.672 28.16-59.392 54.272-71.168 16.384-7.168 9.728-30.72-4.608-35.328-18.944-6.144-39.424-9.728-60.928-11.264 0-28.672-11.776-59.392-18.944-86.528-3.584-13.824-22.528-18.944-32.256-8.704-25.6 27.136-64.512 58.368-65.536 98.304-10.24 1.024-20.48 2.56-30.72 4.096-4.096-17.408-9.728-32.768-18.432-46.08-36.352-55.296-67.072-16.384-96.768 17.92-52.736 61.44-131.584 79.36-189.952 130.048-8.192-26.624-18.944-52.736-34.816-77.312-8.192-12.288-21.504-13.824-32.256-9.728-5.632 1.536-10.752 5.12-14.336 11.776-31.744 58.368-59.904 114.688-56.832 182.784 0 2.048 0.512 4.096 1.024 5.632-49.664 50.176-99.328 100.352-149.504 150.016-45.568 46.08-101.376 90.624-136.192 145.92-69.632 111.104 20.992 212.992 95.744 292.864 80.384 85.504 173.568 99.84 269.824 27.136 55.296-41.984 110.592-92.672 158.208-142.848 35.84-37.888 63.488-82.432 102.4-117.248 1.536-1.536 2.56-3.072 3.584-4.608 53.76-23.552 109.568-41.984 171.52-50.176 6.656-1.024 12.288-4.096 16.384-8.192 19.456-6.656 29.184-34.816 6.144-45.056-18.944-8.704-38.912-15.36-59.392-21.504C839.68 517.12 864.768 475.136 880.128 433.152c24.576-68.096 65.024-110.592 122.368-153.088 14.848-10.752 17.92-43.008-6.656-46.592zM890.88 66.048c4.096 14.336 8.192 29.696 8.192 43.52-12.8 0-25.6 0.512-38.4 1.024 3.584-16.384 16.896-31.232 30.208-44.544z m57.856 85.504c-18.432 21.504-31.232 50.176-40.448 76.288-37.376 0-74.24 3.584-112.128 10.752 1.536-26.624 2.048-55.296 0-81.92 47.616-7.68 103.424-12.288 152.576-5.12z m-305.152 36.352c35.328-23.552 57.856-56.832 86.016-86.528 25.6 37.888 11.264 182.784 11.264 209.92-1.024 70.144 8.192 159.232-22.528 223.232-1.024 2.048-1.536 3.584-2.048 5.632-80.384-5.632-162.816 6.656-236.544 35.328l6.144-19.968c21.504-71.68 19.968-151.04 16.896-224.768-1.024-17.408-2.048-34.304-4.096-50.688 39.936-47.616 95.232-58.368 144.896-92.16z m-142.336 645.12c-40.448 36.864-81.408 82.432-130.048 108.032-75.264 40.448-132.608 10.24-185.856-46.08-38.912-40.96-86.528-87.552-103.936-141.824-24.064-75.776 32.256-129.024 81.408-178.176l222.72-224.256c0.512-0.512 0.512-0.512 0.512-1.024 7.68-3.584 12.8-10.752 12.288-22.016-2.048-43.52 11.264-80.384 29.184-117.248 43.008 103.936 35.84 252.928 2.048 350.72-39.936 115.2-103.936 223.232-198.144 302.08-25.6 20.992 11.264 57.344 36.352 36.352 82.432-68.608 145.408-161.28 187.904-261.12 4.096 0.512 8.704-0.512 13.312-2.56 91.136-44.032 206.848-57.344 309.76-35.84-93.696 25.6-175.616 69.12-266.24 115.2-29.696 14.848-3.584 59.392 26.112 44.544 18.944-9.728 37.376-18.944 55.296-28.672-29.184 34.816-58.368 70.656-92.672 101.888z m346.624-461.312c-16.384 33.28-22.016 71.168-37.888 104.96-11.776 25.088-25.6 46.08-34.304 71.168-2.56-0.512-4.608-0.512-7.168-1.024 29.184-72.704 22.528-158.208 23.552-235.008 0-6.656 0.512-13.312 0.512-20.48h1.536c43.008-9.216 85.504-13.312 128-12.288-29.696 26.112-56.32 55.808-74.24 92.672z" fill="#09BB07" p-id="3812"></path></svg>