<?xml version="1.0" standalone="no"?><!DOCTYPE svg PUBLIC "-//W3C//DTD SVG 1.1//EN" "http://www.w3.org/Graphics/SVG/1.1/DTD/svg11.dtd"><svg t="1515310433422" class="icon" style="" viewBox="0 0 1024 1024" version="1.1" xmlns="http://www.w3.org/2000/svg" p-id="3249" xmlns:xlink="http://www.w3.org/1999/xlink" width="112" height="112"><defs><style type="text/css"></style></defs><path d="M823.926154 937.353846H200.073846c-27.569231 0-51.987692-15.753846-63.803077-40.172308a70.025846 70.025846 0 0 1 8.664616-74.830769L401.723077 500.972308V228.430769h-7.876923c-17.329231 0-31.507692-14.178462-31.507692-31.507692V118.153846c0-17.329231 14.178462-31.507692 31.507692-31.507692h236.307692c17.329231 0 31.507692 14.178462 31.507692 31.507692v78.769231c0 17.329231-14.178462 31.507692-31.507692 31.507692h-7.876923v272.541539l256.787692 321.378461c17.329231 21.267692 20.48 50.412308 8.664616 74.830769-11.815385 24.418462-36.233846 40.172308-63.803077 40.172308zM425.353846 165.415385h7.876923c17.329231 0 31.507692 14.178462 31.507693 31.507692v315.076923c0 7.089231-2.363077 14.178462-7.089231 19.692308l-263.876923 330.043077c-2.363077 3.150769-1.575385 6.301538-0.787693 8.664615 0.787692 2.363077 3.150769 4.726154 7.089231 4.726154h623.852308c3.938462 0 6.301538-2.363077 7.089231-4.726154 0.787692-2.363077 1.575385-5.513846-0.787693-8.664615L566.350769 531.692308c-4.726154-5.513846-7.089231-12.603077-7.089231-19.692308V196.923077c0-17.329231 14.178462-31.507692 31.507693-31.507692h7.876923v-15.753847H425.353846v15.753847z" fill="#7F7F7F" p-id="3250"></path><path d="M433.230769 748.307692m-78.769231 0a78.769231 78.769231 0 1 0 157.538462 0 78.769231 78.769231 0 1 0-157.538462 0Z" fill="#09BB07" p-id="3251"></path><path d="M598.646154 708.923077m-39.384616 0a39.384615 39.384615 0 1 0 78.769231 0 39.384615 39.384615 0 1 0-78.769231 0Z" fill="#09BB07" p-id="3252"></path></svg>